<?xml version="1.0" encoding="UTF-8" standalone="no"?>
<svg
   xmlns:dc="http://purl.org/dc/elements/1.1/"
   xmlns:cc="http://creativecommons.org/ns#"
   xmlns:rdf="http://www.w3.org/1999/02/22-rdf-syntax-ns#"
   xmlns:svg="http://www.w3.org/2000/svg"
   xmlns="http://www.w3.org/2000/svg"
   xmlns:sodipodi="http://sodipodi.sourceforge.net/DTD/sodipodi-0.dtd"
   xmlns:inkscape="http://www.inkscape.org/namespaces/inkscape"
   width="129.44882"
   height="52.409451"
   id="svg2"
   sodipodi:version="0.32"
   inkscape:version="0.92.1 r15371"
   sodipodi:docname="logilab.svg"
   version="1.0">
  <metadata
     id="metadata39">
    <rdf:RDF>
      <cc:Work
         rdf:about="">
        <dc:format>image/svg+xml</dc:format>
        <dc:type
           rdf:resource="http://purl.org/dc/dcmitype/StillImage" />
        <dc:title></dc:title>
      </cc:Work>
    </rdf:RDF>
  </metadata>
  <defs
     id="defs37" />
  <sodipodi:namedview
     inkscape:window-height="1200"
     inkscape:window-width="1920"
     inkscape:pageshadow="2"
     inkscape:pageopacity="0.0"
     guidetolerance="10.0"
     gridtolerance="10.0"
     objecttolerance="10.0"
     borderopacity="1.0"
     bordercolor="#666666"
     pagecolor="#ffffff"
     id="base"
     width="45.000002mm"
     height="21mm"
     units="mm"
     inkscape:zoom="5.0799965"
     inkscape:cx="68.139721"
     inkscape:cy="33.888424"
     inkscape:window-x="0"
     inkscape:window-y="0"
     inkscape:current-layer="svg2"
     showgrid="false"
     inkscape:window-maximized="0" />
  <g
     id="g60"
     transform="matrix(0.70187804,0,0,0.70187804,7.2432091,-0.08165233)">
    <g
       id="g4"
       style="fill:#000000;fill-rule:evenodd;stroke:none;stroke-width:0.17351399pt;stroke-linecap:butt;stroke-linejoin:miter;stroke-dasharray:none"
       transform="matrix(1.249996,0,0,1.25001,42.73212,37.00163)">
      <path
         id="path6"
         d="m 23.0204,17.9342 c 0,8.1317 -4.1493,10.7531 -12.5274,10.7531 -3.43135,0 -6.26412,-0.6832 -7.93996,-1.2539 0,0 0.35898,-5.3955 0.35898,-5.3955 2.19441,1.0259 4.02985,1.6342 7.0222,1.6342 4.14928,0 6.38348,-1.8619 6.38348,-5.7379 0,0 0,-1.0636 0,-1.0636 0,0 -0.08,0 -0.08,0 -1.7153,2.3175 -4.1094,3.3821 -6.98164,3.3821 C 3.55073,20.2527 0,16.1487 0,10.2975 0,4.40761 2.91202,0 9.37548,0 c 3.07232,0 5.54572,1.5962 7.06162,4.02764 0,0 0.08,0 0.08,0 0,0 0,-3.571604 0,-3.571604 0,0 6.5033,0 6.5033,0 0,0 0,17.478164 0,17.478164 z M 11.4899,15.0088 c 2.5534,0 4.5883,-2.0519 4.5883,-5.09162 0,-2.20347 -1.3564,-4.67327 -4.5883,-4.67327 -2.67315,0 -4.06927,2.2411 -4.06927,4.93889 0,3.0781 1.91505,4.826 4.06927,4.826 z"
         inkscape:connector-curvature="0" />
    </g>
    <g
       id="g8"
       style="fill:#000000;fill-rule:evenodd;stroke:none;stroke-width:0.17351399pt;stroke-linecap:butt;stroke-linejoin:miter;stroke-dasharray:none"
       transform="matrix(1.249996,0,0,1.25001,13.48734,37.00163)">
      <path
         id="path10"
         d="M 0,10.3731 C 0,3.80002 4.61139,0 10.6658,0 c 6.0549,0 10.666,3.80002 10.666,10.3731 0,6.5355 -4.6111,10.3352 -10.666,10.3352 C 4.61139,20.7083 0,16.9086 0,10.3731 Z m 14.7843,0 c 0,-2.96373 -1.1967,-5.58515 -4.1185,-5.58515 -2.92165,0 -4.11838,2.62142 -4.11838,5.58515 0,2.9262 1.19673,5.5476 4.11838,5.5476 2.9218,0 4.1185,-2.6214 4.1185,-5.5476 z"
         inkscape:connector-curvature="0" />
    </g>
    <g
       id="g12"
       style="fill:#000000;fill-opacity:1;stroke:none;stroke-width:0.17351399pt;stroke-linecap:butt;stroke-linejoin:miter;stroke-dasharray:none"
       transform="matrix(1.249996,0,0,1.25001,87.12872,18.4521)">
      <path
         style="fill:#000000;fill-opacity:1"
         id="path14"
         d="m 0,0 c 0,0 7.18179,0 7.18179,0 0,0 0,35.0922 0,35.0922 0,0 -7.18179,0 -7.18179,0 C 0,35.0922 0,0 0,0"
         inkscape:connector-curvature="0" />
    </g>
    <g
       id="g16"
       style="fill:#000000;fill-opacity:1;stroke:none;stroke-width:0.17351399pt;stroke-linecap:butt;stroke-linejoin:miter;stroke-dasharray:none"
       transform="matrix(1.249996,0,0,1.25001,1.771653,28.56106)">
      <path
         style="fill:#000000;fill-opacity:1"
         id="path18"
         d="m 0,0 c 0,0 7.35965,0 7.35965,0 0,0 0,29.4811 0,29.4811 0,0 11.39565,0 11.39565,0 0,0 0,5.2435 0,5.2435 0,0 -18.7553,0 -18.7553,0 C 0,34.7246 0,0 0,0"
         inkscape:connector-curvature="0" />
    </g>
    <g
       id="g20"
       style="fill:#000000;fill-rule:evenodd;stroke:none;stroke-width:0.17351399pt;stroke-linecap:butt;stroke-linejoin:miter;stroke-dasharray:none"
       transform="matrix(1.249996,0,0,1.25001,129.1221,18.4521)">
      <path
         id="path22"
         d="m 0,0 c 0,0 7.06816,0 7.06816,0 0,0 0,17.8412 0,17.8412 0,0 0.07781,0 0.07781,0 1.79635,-2.2035 4.17823,-3.0018 6.99003,-3.0018 5.6232,0 8.7081,5.206 8.7081,9.9936 0,5.8515 -3.2413,10.7148 -9.2944,10.7148 -3.2409,0 -6.09107,-1.7859 -6.98961,-3.9897 0,0 -0.07817,0 -0.07817,0 0,0 0,3.5341 0,3.5341 0,0 -6.48192,0 -6.48192,0 C 0,35.0922 0,0 0,0 Z m 11.3242,20.0834 c -2.5773,0 -4.29512,2.2038 -4.29512,5.1672 0,2.8881 1.95268,5.0532 4.29512,5.0532 2.6554,0 4.2567,-2.1651 4.2567,-5.3188 0,-2.6222 -1.5231,-4.9016 -4.2567,-4.9016 z"
         inkscape:connector-curvature="0" />
    </g>
    <g
       id="g24"
       style="fill:#000000;fill-rule:evenodd;stroke:none;stroke-width:0.17351399pt;stroke-linecap:butt;stroke-linejoin:miter;stroke-dasharray:none"
       transform="matrix(1.249996,0,0,1.25001,99.33981,37.00163)">
      <path
         id="path26"
         d="m 14.6024,20.2527 c -0.0398,-1.0646 -0.1599,-2.0898 -0.1599,-3.1161 0,0 -0.0796,0 -0.0796,0 -1.6361,2.4698 -3.6307,3.5717 -6.58329,3.5717 C 3.67051,20.7083 0,18.7705 0,14.4768 0,8.43493 6.90242,7.71371 10.7322,7.71371 c 1.1572,0 2.4336,0.11363 3.3513,0.26562 C 14.0437,5.28154 11.9292,4.5596 9.33568,4.5596 c -2.3142,0 -4.62804,0.41797 -6.62306,1.48225 0,0 -0.11905,-4.63564 -0.11905,-4.63564 C 5.1466,0.417569 7.81978,0 10.8917,0 c 5.3062,0 9.8948,2.16543 9.8948,8.20731 0,0 0,7.37139 0,7.37139 0,1.5579 0.0793,3.1161 0.3988,4.674 0,0 -6.5829,0 -6.5829,0 z m -4.94755,-4.104 c 2.71295,0 4.42865,-2.3555 4.42865,-4.674 -0.9177,-0.0376 -1.9549,-0.1136 -3.0322,-0.1136 -2.43358,0 -4.34899,0.7215 -4.34899,2.6214 0,1.3682 1.27706,2.1662 2.95254,2.1662 z"
         inkscape:connector-curvature="0" />
    </g>
    <g
       id="g28"
       style="fill:#ff8b19;fill-opacity:1;stroke:none;stroke-width:0.17351399pt;stroke-linecap:butt;stroke-linejoin:miter;stroke-dasharray:none"
       transform="matrix(1.249996,0,0,1.25001,64.0778,18.4521)">
      <path
         style="fill:#ff8b19;fill-opacity:1"
         id="path30"
         d="m 8.55004,0 c 0,0 0,0.0144027 0,0.0144027 0,0 -8.55004,0 -8.55004,0 0,0 0,6.0676473 0,6.0676473 0,0 8.55004,0 8.55004,0 0,0 0,29.01015 0,29.01015 0,0 7.18146,0 7.18146,0 0,0 0,-35.0922 0,-35.0922 0,0 -7.18146,0 -7.18146,0"
         inkscape:connector-curvature="0" />
    </g>
    <g
       id="g32"
       style="fill:#ff8c19;fill-opacity:1;stroke:none;stroke-width:0.17351399pt;stroke-linecap:butt;stroke-linejoin:miter;stroke-dasharray:none"
       transform="matrix(1.249996,0,0,1.25001,73.98677,1.548424)">
      <path
         style="fill:#ff8c19;fill-opacity:1"
         id="path34"
         d="M 0,4.18054 C 0,1.87159 1.87198,0 4.18003,0 6.4888,0 8.36006,1.87159 8.36006,4.18054 8.36006,6.4892 6.4888,8.36075 4.18003,8.36075 1.87198,8.36075 0,6.4892 0,4.18054"
         inkscape:connector-curvature="0" />
    </g>
  </g>
</svg>
