<?xml version="1.0" standalone="no"?>
<!DOCTYPE svg PUBLIC "-//W3C//DTD SVG 20010904//EN"
 "http://www.w3.org/TR/2001/REC-SVG-20010904/DTD/svg10.dtd">
<svg version="1.0" xmlns="http://www.w3.org/2000/svg"
 width="700.000000pt" height="700.000000pt" viewBox="0 0 700.000000 700.000000"
 preserveAspectRatio="xMidYMid meet">
<metadata>
Created by potrace 1.14, written by Peter Selinger 2001-2017
</metadata>
<g transform="translate(0.000000,700.000000) scale(0.100000,-0.100000)"
fill="#000000" stroke="none">
<path d="M1050 6965 c-458 -72 -835 -399 -975 -845 -57 -184 -55 -71 -55
-2620 0 -2595 -4 -2442 65 -2648 145 -433 521 -749 972 -817 145 -22 4738 -22
4883 -1 455 69 829 383 975 818 69 206 65 52 65 2648 0 2596 4 2442 -65 2648
-122 365 -414 655 -775 771 -185 60 24 55 -2605 57 -1965 2 -2415 0 -2485 -11z
m2296 -280 c78 -248 178 -425 508 -905 491 -714 652 -1115 706 -1755 6 -71 13
-131 15 -133 2 -3 38 47 79 110 305 468 589 1103 736 1647 l34 124 14 -64
c108 -509 264 -1024 575 -1904 222 -628 291 -866 343 -1175 22 -135 30 -435
14 -568 -59 -502 -319 -973 -852 -1543 -141 -151 -416 -415 -405 -389 306 723
396 1198 336 1760 -20 189 -118 691 -139 713 -15 16 -132 -161 -273 -413 -97
-173 -161 -263 -261 -369 -70 -73 -280 -251 -296 -251 -3 0 -5 102 -6 228 0
207 -3 238 -28 357 -103 493 -365 940 -760 1297 -95 86 -286 238 -299 238 -2
0 0 -24 5 -52 14 -87 11 -363 -6 -475 -28 -184 -56 -280 -225 -761 -110 -314
-137 -456 -127 -681 3 -80 9 -161 12 -180 l7 -34 -89 48 c-357 192 -590 440
-1024 1087 -47 70 -87 127 -90 128 -3 0 -13 -44 -23 -98 -10 -53 -51 -234 -92
-402 -129 -537 -154 -683 -162 -955 -6 -212 8 -357 52 -526 53 -208 161 -429
293 -602 24 -32 42 -60 39 -63 -2 -2 -64 36 -138 85 -639 427 -1018 971 -1149
1647 -67 350 -67 801 1 1229 93 586 303 1262 674 2171 59 142 110 263 114 267
4 4 11 -21 14 -56 16 -173 77 -389 153 -539 59 -119 118 -204 250 -358 174
-203 245 -303 309 -430 l37 -74 72 111 c230 354 367 695 521 1298 166 651 264
950 436 1337 34 77 34 77 42 45 5 -18 29 -95 53 -172z"/>
</g>
</svg>
