<svg xmlns="http://www.w3.org/2000/svg" viewBox="0 0.1 346.6 162.3" width="346.6" height="162.3" preserveAspectRatio="xMidYMin"><defs><linearGradient gradientUnits="userSpaceOnUse" x1="-819.2" x2="819.2" spreadMethod="unknown" gradientTransform="matrix(-.076 -.076 .005 -.005 223.55 90.65)" id="a"><stop offset=".035" stop-color="#E0FFFF"/><stop offset=".157" stop-color="#fff"/><stop offset=".263" stop-color="#D3FFFF"/><stop offset=".369" stop-color="#fff"/><stop offset=".561" stop-color="#D3FFFF"/><stop offset=".659" stop-color="#F6FFFF"/><stop offset=".788" stop-color="#E1FFFF"/></linearGradient><linearGradient gradientUnits="userSpaceOnUse" x1="-819.2" x2="819.2" spreadMethod="repeat" gradientTransform="matrix(-.127 -.086 .004 -.006 203 103.7)" id="b"><stop offset=".035" stop-color="#E0FFFF"/><stop offset=".157" stop-color="#fff"/><stop offset=".263" stop-color="#D3FFFF"/><stop offset=".369" stop-color="#fff"/><stop offset=".561" stop-color="#D3FFFF"/><stop offset=".659" stop-color="#F6FFFF"/><stop offset=".788" stop-color="#E1FFFF"/></linearGradient><linearGradient gradientUnits="userSpaceOnUse" x1="-819.2" x2="819.2" gradientTransform="matrix(-.005 -.002 .003 -.007 103.85 29)" id="c"><stop offset="0" stop-color="#fc0"/><stop offset=".22" stop-color="#FF8100"/><stop offset="1" stop-color="#f60"/></linearGradient><linearGradient gradientUnits="userSpaceOnUse" x1="-819.2" x2="819.2" spreadMethod="unknown" gradientTransform="matrix(-.027 .015 -.028 -.038 101.6 46.95)" id="d"><stop offset="0" stop-color="#fc0"/><stop offset=".133" stop-color="#fff"/><stop offset=".192" stop-color="#fc0"/><stop offset=".525" stop-color="#FFF2BB"/><stop offset=".761" stop-color="#fc0"/><stop offset=".894" stop-color="#FFFBE9"/><stop offset="1" stop-color="#fc0"/></linearGradient><linearGradient gradientUnits="userSpaceOnUse" x1="-819.2" x2="819.2" spreadMethod="reflect" gradientTransform="matrix(-.021 .019 -.012 -.011 90.05 45.65)" id="e"><stop offset="0" stop-color="#fc0"/><stop offset=".133" stop-color="#fff"/><stop offset=".192" stop-color="#fc0"/><stop offset=".525" stop-color="#FFF2BB"/><stop offset=".761" stop-color="#fc0"/><stop offset=".894" stop-color="#FFFBE9"/><stop offset="1" stop-color="#fc0"/></linearGradient><linearGradient gradientUnits="userSpaceOnUse" x1="-819.2" x2="819.2" spreadMethod="reflect" gradientTransform="matrix(-.007 .016 -.01 -.004 84.25 43.4)" id="f"><stop offset="0" stop-color="#fc0"/><stop offset=".133" stop-color="#fff"/><stop offset=".192" stop-color="#fc0"/><stop offset=".525" stop-color="#FFF2BB"/><stop offset=".761" stop-color="#fc0"/><stop offset=".894" stop-color="#FFFBE9"/><stop offset="1" stop-color="#fc0"/></linearGradient><linearGradient gradientUnits="userSpaceOnUse" x1="-819.2" x2="819.2" gradientTransform="matrix(-.049 -.053 .078 -.061 176.65 162.8)" id="g"><stop offset="0" stop-color="#fc0"/><stop offset=".133" stop-color="#fff"/><stop offset=".192" stop-color="#fc0"/><stop offset=".525" stop-color="#FFF2BB"/><stop offset=".761" stop-color="#fc0"/><stop offset=".894" stop-color="#FFFBE9"/><stop offset="1" stop-color="#fc0"/></linearGradient><linearGradient gradientUnits="userSpaceOnUse" x1="-819.2" x2="819.2" gradientTransform="matrix(-.027 -.012 .006 -.013 125.85 61.85)" id="h"><stop offset="0" stop-color="#fc0"/><stop offset=".133" stop-color="#fff"/><stop offset=".192" stop-color="#fc0"/><stop offset=".525" stop-color="#FFF2BB"/><stop offset=".761" stop-color="#fc0"/><stop offset=".894" stop-color="#FFFBE9"/><stop offset="1" stop-color="#fc0"/></linearGradient><linearGradient gradientUnits="userSpaceOnUse" x1="-819.2" x2="819.2" spreadMethod="unknown" gradientTransform="matrix(-.447 -.204 .181 -.399 308.45 232.4)" id="i"><stop offset=".157" stop-color="#fff"/><stop offset=".533" stop-color="#D3FFFF"/></linearGradient><linearGradient gradientUnits="userSpaceOnUse" x1="-819.2" x2="819.2" gradientTransform="matrix(-.009 -.004 .004 -.009 84.25 43.4)" id="j"><stop offset="0" stop-color="#fc0"/><stop offset=".133" stop-color="#fff"/><stop offset=".192" stop-color="#fc0"/><stop offset=".525" stop-color="#FFF2BB"/><stop offset=".761" stop-color="#fc0"/><stop offset=".894" stop-color="#FFFBE9"/><stop offset="1" stop-color="#fc0"/></linearGradient><linearGradient gradientUnits="userSpaceOnUse" x1="-819.2" x2="819.2" spreadMethod="reflect" color-interpolation="linearRGB" gradientTransform="matrix(-.004 -.002 .003 -.008 87.15 67.45)" id="k"><stop offset="0" stop-color="#fc0"/><stop offset=".22" stop-color="#FF8100"/><stop offset="1" stop-color="#f60"/></linearGradient><linearGradient gradientUnits="userSpaceOnUse" x1="-819.2" x2="819.2" gradientTransform="matrix(-.055 -.072 .087 -.053 174.15 165.1)" id="l"><stop offset="0" stop-color="#fc0"/><stop offset=".133" stop-color="#fff"/><stop offset=".192" stop-color="#fc0"/><stop offset=".525" stop-color="#FFF2BB"/><stop offset=".761" stop-color="#fc0"/><stop offset=".894" stop-color="#FFFBE9"/><stop offset="1" stop-color="#fc0"/></linearGradient><linearGradient gradientUnits="userSpaceOnUse" x1="-819.2" x2="819.2" spreadMethod="unknown" color-interpolation="linearRGB" gradientTransform="matrix(-.005 .015 -.01 -.004 76.25 39.85)" id="m"><stop offset="0" stop-color="#fc0"/><stop offset=".133" stop-color="#fff"/><stop offset=".192" stop-color="#fc0"/><stop offset=".525" stop-color="#FFF2BB"/><stop offset=".761" stop-color="#fc0"/><stop offset=".894" stop-color="#FFFBE9"/><stop offset="1" stop-color="#fc0"/></linearGradient><linearGradient gradientUnits="userSpaceOnUse" x1="-819.2" x2="819.2" spreadMethod="unknown" gradientTransform="matrix(-.008 -.004 .003 -.007 58.7 32.2)" id="n"><stop offset="0" stop-color="#fc0"/><stop offset=".133" stop-color="#fff"/><stop offset=".192" stop-color="#fc0"/><stop offset=".525" stop-color="#FFF2BB"/><stop offset=".761" stop-color="#fc0"/><stop offset=".894" stop-color="#FFFBE9"/><stop offset="1" stop-color="#fc0"/></linearGradient><linearGradient gradientUnits="userSpaceOnUse" x1="-819.2" x2="819.2" gradientTransform="matrix(-.008 -.004 .003 -.006 50.1 28.35)" id="o"><stop offset="0" stop-color="#fc0"/><stop offset=".133" stop-color="#fff"/><stop offset=".192" stop-color="#fc0"/><stop offset=".525" stop-color="#FFF2BB"/><stop offset=".761" stop-color="#fc0"/><stop offset=".894" stop-color="#FFFBE9"/><stop offset="1" stop-color="#fc0"/></linearGradient><linearGradient gradientUnits="userSpaceOnUse" x1="-819.2" x2="819.2" spreadMethod="unknown" gradientTransform="matrix(-.007 -.003 .002 -.005 41.6 24.55)" id="p"><stop offset="0" stop-color="#fc0"/><stop offset=".133" stop-color="#fff"/><stop offset=".192" stop-color="#fc0"/><stop offset=".525" stop-color="#FFF2BB"/><stop offset=".761" stop-color="#fc0"/><stop offset=".894" stop-color="#FFFBE9"/><stop offset="1" stop-color="#fc0"/></linearGradient><linearGradient gradientUnits="userSpaceOnUse" x1="-819.2" x2="819.2" gradientTransform="matrix(-.009 -.004 .004 -.008 76.15 40.15)" id="q"><stop offset="0" stop-color="#fc0"/><stop offset=".133" stop-color="#fff"/><stop offset=".192" stop-color="#fc0"/><stop offset=".525" stop-color="#FFF2BB"/><stop offset=".761" stop-color="#fc0"/><stop offset=".894" stop-color="#FFFBE9"/><stop offset="1" stop-color="#fc0"/></linearGradient><linearGradient gradientUnits="userSpaceOnUse" x1="-819.2" x2="819.2" spreadMethod="unknown" gradientTransform="matrix(-.009 -.004 .003 -.007 67.35 36.15)" id="r"><stop offset="0" stop-color="#fc0"/><stop offset=".133" stop-color="#fff"/><stop offset=".192" stop-color="#fc0"/><stop offset=".525" stop-color="#FFF2BB"/><stop offset=".761" stop-color="#fc0"/><stop offset=".894" stop-color="#FFFBE9"/><stop offset="1" stop-color="#fc0"/></linearGradient><linearGradient gradientUnits="userSpaceOnUse" x1="-819.2" x2="819.2" spreadMethod="reflect" gradientTransform="matrix(-.007 -.003 .002 -.004 33.2 20.4)" id="s"><stop offset="0" stop-color="#fc0"/><stop offset=".133" stop-color="#fff"/><stop offset=".192" stop-color="#fc0"/><stop offset=".525" stop-color="#FFF2BB"/><stop offset=".761" stop-color="#fc0"/><stop offset=".894" stop-color="#FFFBE9"/><stop offset="1" stop-color="#fc0"/></linearGradient><linearGradient gradientUnits="userSpaceOnUse" x1="-819.2" x2="819.2" spreadMethod="unknown" gradientTransform="matrix(-.006 .012 -.012 -.006 20.3 15.85)" id="t"><stop offset="0" stop-color="#fc0"/><stop offset=".133" stop-color="#fff"/><stop offset=".192" stop-color="#fc0"/><stop offset=".525" stop-color="#FFF2BB"/><stop offset=".761" stop-color="#fc0"/><stop offset=".894" stop-color="#FFFBE9"/><stop offset="1" stop-color="#fc0"/></linearGradient><linearGradient gradientUnits="userSpaceOnUse" x1="-819.2" x2="819.2" spreadMethod="unknown" gradientTransform="matrix(-.005 .012 -.004 -.002 9.8 17.75)" id="u"><stop offset="0" stop-color="#fff"/><stop offset=".141" stop-color="#f00"/><stop offset=".384" stop-color="#FFDEDE"/><stop offset=".561" stop-color="#f00"/><stop offset=".878" stop-color="#FFC7C7"/></linearGradient><linearGradient gradientUnits="userSpaceOnUse" x1="-819.2" x2="819.2" spreadMethod="reflect" gradientTransform="matrix(-.006 .011 -.005 -.003 11.8 13.65)" id="v"><stop offset="0" stop-color="#fff"/><stop offset=".141" stop-color="#f00"/><stop offset=".384" stop-color="#FFDEDE"/><stop offset=".561" stop-color="#f00"/><stop offset=".878" stop-color="#FFC7C7"/></linearGradient><linearGradient gradientUnits="userSpaceOnUse" x1="-819.2" x2="819.2" gradientTransform="matrix(.003 -.008 .005 .002 14.3 10.1)" id="w"><stop offset="0" stop-color="#fff"/><stop offset=".141" stop-color="#f00"/><stop offset=".384" stop-color="#FFDEDE"/><stop offset=".561" stop-color="#f00"/><stop offset=".878" stop-color="#FFC7C7"/></linearGradient><radialGradient gradientUnits="userSpaceOnUse" r="819.2" cx="0" cy="0" fx="816" fy="0" spreadMethod="reflect" gradientTransform="matrix(-.017 -.008 .006 -.013 13.55 13.9)" id="x"><stop offset="0" stop-color="#fff"/><stop offset=".141" stop-color="#FF7B7B"/><stop offset=".537" stop-color="#f00"/><stop offset=".878" stop-color="#FFC7C7"/></radialGradient><linearGradient gradientUnits="userSpaceOnUse" x1="-819.2" x2="819.2" spreadMethod="reflect" gradientTransform="matrix(.007 -.003 .002 .005 306.65 22.45)" id="y"><stop offset="0" stop-color="#fc0"/><stop offset=".133" stop-color="#fff"/><stop offset=".192" stop-color="#fc0"/><stop offset=".525" stop-color="#FFF2BB"/><stop offset=".761" stop-color="#fc0"/><stop offset=".894" stop-color="#FFFBE9"/><stop offset="1" stop-color="#fc0"/></linearGradient><linearGradient gradientUnits="userSpaceOnUse" x1="-819.2" x2="819.2" color-interpolation="linearRGB" gradientTransform="matrix(.007 -.003 .002 .004 315.25 18.85)" id="z"><stop offset="0" stop-color="#fc0"/><stop offset=".133" stop-color="#fff"/><stop offset=".192" stop-color="#fc0"/><stop offset=".525" stop-color="#FFF2BB"/><stop offset=".761" stop-color="#fc0"/><stop offset=".894" stop-color="#FFFBE9"/><stop offset="1" stop-color="#fc0"/></linearGradient><linearGradient gradientUnits="userSpaceOnUse" x1="-819.2" x2="819.2" spreadMethod="unknown" gradientTransform="matrix(.008 -.004 .003 .006 298.25 26.35)" id="A"><stop offset="0" stop-color="#fc0"/><stop offset=".133" stop-color="#fff"/><stop offset=".192" stop-color="#fc0"/><stop offset=".525" stop-color="#FFF2BB"/><stop offset=".761" stop-color="#fc0"/><stop offset=".894" stop-color="#FFFBE9"/><stop offset="1" stop-color="#fc0"/></linearGradient><linearGradient gradientUnits="userSpaceOnUse" x1="-819.2" x2="819.2" spreadMethod="repeat" gradientTransform="matrix(-.008 -.014 .009 -.005 272.3 38.5)" id="B"><stop offset="0" stop-color="#fc0"/><stop offset=".133" stop-color="#fff"/><stop offset=".192" stop-color="#fc0"/><stop offset=".525" stop-color="#FFF2BB"/><stop offset=".761" stop-color="#fc0"/><stop offset=".894" stop-color="#FFFBE9"/><stop offset="1" stop-color="#fc0"/></linearGradient><linearGradient gradientUnits="userSpaceOnUse" x1="-819.2" x2="819.2" gradientTransform="matrix(-.005 -.013 .013 -.005 327.2 12.05)" id="C"><stop offset="0" stop-color="#fc0"/><stop offset=".133" stop-color="#fff"/><stop offset=".192" stop-color="#fc0"/><stop offset=".525" stop-color="#FFF2BB"/><stop offset=".761" stop-color="#fc0"/><stop offset=".894" stop-color="#FFFBE9"/><stop offset="1" stop-color="#fc0"/></linearGradient><linearGradient gradientUnits="userSpaceOnUse" x1="-819.2" x2="819.2" spreadMethod="repeat" gradientTransform="matrix(.008 -.004 .003 .007 289.6 30.3)" id="D"><stop offset="0" stop-color="#fc0"/><stop offset=".133" stop-color="#fff"/><stop offset=".192" stop-color="#fc0"/><stop offset=".525" stop-color="#FFF2BB"/><stop offset=".761" stop-color="#fc0"/><stop offset=".894" stop-color="#FFFBE9"/><stop offset="1" stop-color="#fc0"/></linearGradient><linearGradient gradientUnits="userSpaceOnUse" x1="-819.2" x2="819.2" spreadMethod="unknown" color-interpolation="linearRGB" gradientTransform="matrix(-.005 -.012 .004 -.002 332.7 2.95)" id="E"><stop offset="0" stop-color="#fff"/><stop offset=".141" stop-color="#f00"/><stop offset=".384" stop-color="#FFDEDE"/><stop offset=".561" stop-color="#f00"/><stop offset=".878" stop-color="#FFC7C7"/></linearGradient><linearGradient gradientUnits="userSpaceOnUse" x1="-819.2" x2="819.2" spreadMethod="repeat" gradientTransform="matrix(-.004 -.012 .005 -.002 334.55 7.1)" id="F"><stop offset="0" stop-color="#fff"/><stop offset=".141" stop-color="#f00"/><stop offset=".384" stop-color="#FFDEDE"/><stop offset=".561" stop-color="#f00"/><stop offset=".878" stop-color="#FFC7C7"/></linearGradient><radialGradient gradientUnits="userSpaceOnUse" r="819.2" cx="0" cy="0" fx="-39612.8" fy="0" spreadMethod="pad" gradientTransform="matrix(.017 -.008 .006 .013 333.2 8.3)" id="G"><stop offset="0" stop-color="#fff"/><stop offset=".141" stop-color="#FF7B7B"/><stop offset=".537" stop-color="#f00"/><stop offset=".878" stop-color="#FFC7C7"/></radialGradient><linearGradient gradientUnits="userSpaceOnUse" x1="-819.2" x2="819.2" spreadMethod="reflect" gradientTransform="matrix(.004 .007 -.005 .003 335.55 11.4)" id="H"><stop offset="0" stop-color="#fff"/><stop offset=".141" stop-color="#f00"/><stop offset=".384" stop-color="#FFDEDE"/><stop offset=".561" stop-color="#f00"/><stop offset=".878" stop-color="#FFC7C7"/></linearGradient><linearGradient gradientUnits="userSpaceOnUse" x1="-819.2" x2="819.2" spreadMethod="repeat" gradientTransform="matrix(.006 -.03 .047 .004 250.2 52.85)" id="I"><stop offset="0" stop-color="#fc0"/><stop offset=".133" stop-color="#fff"/><stop offset=".192" stop-color="#fc0"/><stop offset=".525" stop-color="#FFF2BB"/><stop offset=".761" stop-color="#fc0"/><stop offset=".894" stop-color="#FFFBE9"/><stop offset="1" stop-color="#fc0"/></linearGradient><linearGradient gradientUnits="userSpaceOnUse" x1="-819.2" x2="819.2" spreadMethod="reflect" gradientTransform="matrix(.004 -.002 .003 .008 244.3 28.5)" id="J"><stop offset="0" stop-color="#fc0"/><stop offset=".22" stop-color="#FF8100"/><stop offset="1" stop-color="#f60"/></linearGradient><linearGradient gradientUnits="userSpaceOnUse" x1="-819.2" x2="819.2" gradientTransform="matrix(.027 -.012 .006 .013 222.9 61.3)" id="K"><stop offset="0" stop-color="#fc0"/><stop offset=".133" stop-color="#fff"/><stop offset=".192" stop-color="#fc0"/><stop offset=".525" stop-color="#FFF2BB"/><stop offset=".761" stop-color="#fc0"/><stop offset=".894" stop-color="#FFFBE9"/><stop offset="1" stop-color="#fc0"/></linearGradient><linearGradient gradientUnits="userSpaceOnUse" x1="-819.2" x2="819.2" spreadMethod="repeat" gradientTransform="matrix(.005 -.002 .003 .007 262.25 66.35)" id="L"><stop offset="0" stop-color="#fc0"/><stop offset=".22" stop-color="#FF8100"/><stop offset="1" stop-color="#f60"/></linearGradient><linearGradient gradientUnits="userSpaceOnUse" x1="-819.2" x2="819.2" spreadMethod="unknown" color-interpolation="linearRGB" gradientTransform="matrix(.072 -.002 -.005 .099 113.25 33.1)" id="M"><stop offset="0" stop-color="#fc0"/><stop offset=".133" stop-color="#fff"/><stop offset=".192" stop-color="#fc0"/><stop offset=".525" stop-color="#FFF2BB"/><stop offset=".761" stop-color="#fc0"/><stop offset=".894" stop-color="#FFFBE9"/><stop offset="1" stop-color="#fc0"/></linearGradient><linearGradient gradientUnits="userSpaceOnUse" x1="-819.2" x2="819.2" spreadMethod="repeat" gradientTransform="matrix(.148 -.039 .001 .007 140.55 91.9)" id="N"><stop offset=".035" stop-color="#E0FFFF"/><stop offset=".157" stop-color="#fff"/><stop offset=".263" stop-color="#D3FFFF"/><stop offset=".369" stop-color="#fff"/><stop offset=".561" stop-color="#D3FFFF"/><stop offset=".659" stop-color="#F6FFFF"/><stop offset=".788" stop-color="#E1FFFF"/></linearGradient><linearGradient gradientUnits="userSpaceOnUse" x1="-819.2" x2="819.2" gradientTransform="matrix(.448 -.203 .182 .399 -26.2 86.55)" id="O"><stop offset=".157" stop-color="#fff"/><stop offset=".533" stop-color="#D3FFFF"/></linearGradient><linearGradient gradientUnits="userSpaceOnUse" x1="-819.2" x2="819.2" spreadMethod="repeat" gradientTransform="matrix(.108 -.008 0 .007 136.8 116)" id="P"><stop offset=".035" stop-color="#E0FFFF"/><stop offset=".157" stop-color="#fff"/><stop offset=".263" stop-color="#D3FFFF"/><stop offset=".369" stop-color="#fff"/><stop offset=".561" stop-color="#D3FFFF"/><stop offset=".659" stop-color="#F6FFFF"/><stop offset=".788" stop-color="#E1FFFF"/></linearGradient><linearGradient gradientUnits="userSpaceOnUse" x1="-819.2" x2="819.2" gradientTransform="matrix(-.001 -.028 .016 -.002 258.75 45)" id="Q"><stop offset="0" stop-color="#fc0"/><stop offset=".133" stop-color="#fff"/><stop offset=".192" stop-color="#fc0"/><stop offset=".525" stop-color="#FFF2BB"/><stop offset=".761" stop-color="#fc0"/><stop offset=".894" stop-color="#FFFBE9"/><stop offset="1" stop-color="#fc0"/></linearGradient><linearGradient gradientUnits="userSpaceOnUse" x1="-819.2" x2="819.2" gradientTransform="matrix(.009 -.004 .004 .009 264.3 42.05)" id="R"><stop offset="0" stop-color="#fc0"/><stop offset=".133" stop-color="#fff"/><stop offset=".192" stop-color="#fc0"/><stop offset=".525" stop-color="#FFF2BB"/><stop offset=".761" stop-color="#fc0"/><stop offset=".894" stop-color="#FFFBE9"/><stop offset="1" stop-color="#fc0"/></linearGradient><linearGradient gradientUnits="userSpaceOnUse" x1="-819.2" x2="819.2" spreadMethod="repeat" gradientTransform="matrix(-.008 -.017 .01 -.004 264.3 42.05)" id="S"><stop offset="0" stop-color="#fc0"/><stop offset=".133" stop-color="#fff"/><stop offset=".192" stop-color="#fc0"/><stop offset=".525" stop-color="#FFF2BB"/><stop offset=".761" stop-color="#fc0"/><stop offset=".894" stop-color="#FFFBE9"/><stop offset="1" stop-color="#fc0"/></linearGradient><linearGradient gradientUnits="userSpaceOnUse" x1="-819.2" x2="819.2" spreadMethod="repeat" gradientTransform="matrix(.009 -.004 .004 .008 272.05 38.25)" id="T"><stop offset="0" stop-color="#fc0"/><stop offset=".133" stop-color="#fff"/><stop offset=".192" stop-color="#fc0"/><stop offset=".525" stop-color="#FFF2BB"/><stop offset=".761" stop-color="#fc0"/><stop offset=".894" stop-color="#FFFBE9"/><stop offset="1" stop-color="#fc0"/></linearGradient><linearGradient gradientUnits="userSpaceOnUse" x1="-819.2" x2="819.2" spreadMethod="reflect" gradientTransform="matrix(.009 -.004 .003 .007 280.9 34.25)" id="U"><stop offset="0" stop-color="#fc0"/><stop offset=".133" stop-color="#fff"/><stop offset=".192" stop-color="#fc0"/><stop offset=".525" stop-color="#FFF2BB"/><stop offset=".761" stop-color="#fc0"/><stop offset=".894" stop-color="#FFFBE9"/><stop offset="1" stop-color="#fc0"/></linearGradient><linearGradient gradientUnits="userSpaceOnUse" x1="-819.2" x2="819.2" spreadMethod="repeat" gradientTransform="matrix(.091 .006 -.017 .101 113.2 29.75)" id="V"><stop offset="0" stop-color="#fc0"/><stop offset=".133" stop-color="#fff"/><stop offset=".192" stop-color="#fc0"/><stop offset=".525" stop-color="#FFF2BB"/><stop offset=".761" stop-color="#fc0"/><stop offset=".894" stop-color="#FFFBE9"/><stop offset="1" stop-color="#fc0"/></linearGradient><linearGradient gradientUnits="userSpaceOnUse" x1="-819.2" x2="819.2" spreadMethod="repeat" gradientTransform="matrix(.021 0 0 .028 203.45 36.25)" id="W"><stop offset="0" stop-color="#fc0"/><stop offset=".133" stop-color="#fff"/><stop offset=".192" stop-color="#fc0"/><stop offset=".525" stop-color="#FFF2BB"/><stop offset=".761" stop-color="#fc0"/><stop offset=".894" stop-color="#FFFBE9"/><stop offset="1" stop-color="#fc0"/></linearGradient><radialGradient gradientUnits="userSpaceOnUse" r="819.2" cx="0" cy="0" fx="25395.2" fy="0" spreadMethod="reflect" color-interpolation="linearRGB" gradientTransform="matrix(.018 0 0 .018 173.9 32.7)" id="X"><stop offset="0" stop-color="#fc0"/><stop offset=".361" stop-color="#fc0"/><stop offset=".816" stop-color="#ffc"/><stop offset=".871" stop-color="#fc0"/><stop offset=".984" stop-color="#f60"/></radialGradient><linearGradient gradientUnits="userSpaceOnUse" x1="-819.2" x2="819.2" spreadMethod="unknown" gradientTransform="matrix(.032 0 0 .026 194.1 36.05)" id="Y"><stop offset=".008" stop-color="#8099CC"/><stop offset=".596" stop-color="#039"/><stop offset=".902" stop-color="#003"/></linearGradient><radialGradient gradientUnits="userSpaceOnUse" r="819.2" cx="0" cy="0" fx="22937.6" fy="0" spreadMethod="pad" gradientTransform="matrix(.018 0 0 .018 201.7 70.5)" id="Z"><stop offset="0" stop-color="#fc0"/><stop offset=".361" stop-color="#fc0"/><stop offset=".816" stop-color="#ffc"/><stop offset=".871" stop-color="#fc0"/><stop offset=".984" stop-color="#f60"/></radialGradient><linearGradient gradientUnits="userSpaceOnUse" x1="-819.2" x2="819.2" spreadMethod="reflect" gradientTransform="matrix(.058 .027 -.039 .085 162.55 74.5)" id="aa"><stop offset="0" stop-color="#fc0"/><stop offset=".133" stop-color="#fff"/><stop offset=".192" stop-color="#fc0"/><stop offset=".525" stop-color="#FFF2BB"/><stop offset=".761" stop-color="#fc0"/><stop offset=".894" stop-color="#FFFBE9"/><stop offset="1" stop-color="#fc0"/></linearGradient><linearGradient gradientUnits="userSpaceOnUse" x1="-819.2" x2="819.2" spreadMethod="reflect" color-interpolation="linearRGB" gradientTransform="matrix(.021 0 0 .028 145.85 36.25)" id="ab"><stop offset="0" stop-color="#fc0"/><stop offset=".133" stop-color="#fff"/><stop offset=".192" stop-color="#fc0"/><stop offset=".525" stop-color="#FFF2BB"/><stop offset=".761" stop-color="#fc0"/><stop offset=".894" stop-color="#FFFBE9"/><stop offset="1" stop-color="#fc0"/></linearGradient><linearGradient gradientUnits="userSpaceOnUse" x1="-819.2" x2="819.2" gradientTransform="matrix(-.025 -.001 .001 -.026 145.95 36.55)" id="ac"><stop offset=".008" stop-color="#8099CC"/><stop offset=".596" stop-color="#039"/><stop offset=".902" stop-color="#003"/></linearGradient><linearGradient gradientUnits="userSpaceOnUse" x1="-819.2" x2="819.2" spreadMethod="unknown" color-interpolation="linearRGB" gradientTransform="matrix(.005 0 0 .011 159.35 49.95)" id="ad"><stop offset="0" stop-color="#fc0"/><stop offset=".133" stop-color="#fff"/><stop offset=".192" stop-color="#fc0"/><stop offset=".525" stop-color="#FFF2BB"/><stop offset=".761" stop-color="#fc0"/><stop offset=".894" stop-color="#FFFBE9"/><stop offset="1" stop-color="#fc0"/></linearGradient><linearGradient gradientUnits="userSpaceOnUse" x1="-819.2" x2="819.2" spreadMethod="repeat" gradientTransform="matrix(.005 0 0 .013 190.3 48.7)" id="ae"><stop offset="0" stop-color="#fc0"/><stop offset=".133" stop-color="#fff"/><stop offset=".192" stop-color="#fc0"/><stop offset=".525" stop-color="#FFF2BB"/><stop offset=".761" stop-color="#fc0"/><stop offset=".894" stop-color="#FFFBE9"/><stop offset="1" stop-color="#fc0"/></linearGradient><radialGradient gradientUnits="userSpaceOnUse" r="819.2" cx="0" cy="0" fx="13529.6" fy="0" spreadMethod="repeat" gradientTransform="matrix(.014 0 0 .014 171.85 30.05)" id="af"><stop offset=".133" stop-color="#fff"/><stop offset=".667" stop-color="#FFF2BB"/><stop offset=".878" stop-color="#FFD838"/><stop offset="1" stop-color="#fc0"/></radialGradient><radialGradient gradientUnits="userSpaceOnUse" r="819.2" cx="0" cy="0" fx="8192" fy="0" spreadMethod="pad" color-interpolation="linearRGB" gradientTransform="matrix(.014 0 0 .014 199.15 67.5)" id="ag"><stop offset=".133" stop-color="#fff"/><stop offset=".667" stop-color="#FFF2BB"/><stop offset=".878" stop-color="#FFD838"/><stop offset="1" stop-color="#fc0"/></radialGradient><linearGradient gradientUnits="userSpaceOnUse" x1="-819.2" x2="819.2" spreadMethod="unknown" color-interpolation="linearRGB" gradientTransform="matrix(.005 0 0 .012 190.25 92.35)" id="ah"><stop offset="0" stop-color="#fc0"/><stop offset=".133" stop-color="#fff"/><stop offset=".192" stop-color="#fc0"/><stop offset=".525" stop-color="#FFF2BB"/><stop offset=".761" stop-color="#fc0"/><stop offset=".894" stop-color="#FFFBE9"/><stop offset="1" stop-color="#fc0"/></linearGradient><radialGradient gradientUnits="userSpaceOnUse" r="819.2" cx="0" cy="0" fx="29491.2" fy="0" spreadMethod="pad" gradientTransform="matrix(.018 0 0 .018 174.3 108.95)" id="ai"><stop offset="0" stop-color="#fc0"/><stop offset=".361" stop-color="#fc0"/><stop offset=".816" stop-color="#ffc"/><stop offset=".871" stop-color="#fc0"/><stop offset=".984" stop-color="#f60"/></radialGradient><linearGradient gradientUnits="userSpaceOnUse" x1="-819.2" x2="819.2" spreadMethod="unknown" gradientTransform="matrix(.034 .001 -.001 .034 193.75 110.9)" id="aj"><stop offset=".008" stop-color="#8099CC"/><stop offset=".596" stop-color="#039"/><stop offset=".902" stop-color="#003"/></linearGradient><linearGradient gradientUnits="userSpaceOnUse" x1="-819.2" x2="819.2" spreadMethod="repeat" gradientTransform="matrix(.021 0 0 .036 203.6 111.45)" id="ak"><stop offset="0" stop-color="#fc0"/><stop offset=".133" stop-color="#fff"/><stop offset=".192" stop-color="#fc0"/><stop offset=".525" stop-color="#FFF2BB"/><stop offset=".761" stop-color="#fc0"/><stop offset=".894" stop-color="#FFFBE9"/><stop offset="1" stop-color="#fc0"/></linearGradient><linearGradient gradientUnits="userSpaceOnUse" x1="-819.2" x2="819.2" spreadMethod="unknown" gradientTransform="matrix(.069 .042 -.05 .083 163.7 71.5)" id="al"><stop offset="0" stop-color="#fc0"/><stop offset=".133" stop-color="#fff"/><stop offset=".192" stop-color="#fc0"/><stop offset=".525" stop-color="#FFF2BB"/><stop offset=".761" stop-color="#fc0"/><stop offset=".894" stop-color="#FFFBE9"/><stop offset="1" stop-color="#fc0"/></linearGradient><radialGradient gradientUnits="userSpaceOnUse" r="819.2" cx="0" cy="0" fx="-84377.6" fy="0" spreadMethod="reflect" gradientTransform="matrix(.014 0 0 .014 172.3 107.15)" id="am"><stop offset=".133" stop-color="#fff"/><stop offset=".667" stop-color="#FFF2BB"/><stop offset=".878" stop-color="#FFD838"/><stop offset="1" stop-color="#fc0"/></radialGradient><linearGradient gradientUnits="userSpaceOnUse" x1="-819.2" x2="819.2" spreadMethod="reflect" gradientTransform="matrix(.021 0 0 .037 146.15 112.3)" id="an"><stop offset="0" stop-color="#fc0"/><stop offset=".133" stop-color="#fff"/><stop offset=".192" stop-color="#fc0"/><stop offset=".525" stop-color="#FFF2BB"/><stop offset=".761" stop-color="#fc0"/><stop offset=".894" stop-color="#FFFBE9"/><stop offset="1" stop-color="#fc0"/></linearGradient><radialGradient gradientUnits="userSpaceOnUse" r="819.2" cx="0" cy="0" fx="-15779.2" fy="0" spreadMethod="unknown" gradientTransform="matrix(.018 0 0 .018 147.45 70.15)" id="ao"><stop offset="0" stop-color="#fc0"/><stop offset=".361" stop-color="#fc0"/><stop offset=".816" stop-color="#ffc"/><stop offset=".871" stop-color="#fc0"/><stop offset=".984" stop-color="#f60"/></radialGradient><radialGradient gradientUnits="userSpaceOnUse" r="819.2" cx="0" cy="0" fx="78067.2" fy="0" spreadMethod="reflect" gradientTransform="matrix(.014 0 0 .014 145 67.5)" id="ap"><stop offset=".133" stop-color="#fff"/><stop offset=".667" stop-color="#FFF2BB"/><stop offset=".878" stop-color="#FFD838"/><stop offset="1" stop-color="#fc0"/></radialGradient><linearGradient gradientUnits="userSpaceOnUse" x1="-819.2" x2="819.2" spreadMethod="unknown" gradientTransform="matrix(.006 0 0 .011 158.6 91.35)" id="aq"><stop offset="0" stop-color="#fc0"/><stop offset=".133" stop-color="#fff"/><stop offset=".192" stop-color="#fc0"/><stop offset=".525" stop-color="#FFF2BB"/><stop offset=".761" stop-color="#fc0"/><stop offset=".894" stop-color="#FFFBE9"/><stop offset="1" stop-color="#fc0"/></linearGradient><linearGradient gradientUnits="userSpaceOnUse" x1="-819.2" x2="819.2" color-interpolation="linearRGB" gradientTransform="matrix(-.029 -.002 .003 -.034 151.35 96.3)" id="ar"><stop offset=".008" stop-color="#8099CC"/><stop offset=".596" stop-color="#039"/><stop offset=".902" stop-color="#003"/></linearGradient></defs><path fill="url(#a)" d="M149.5 63.1l147.4 63.65 26.55 24.5L107.5 53.2l3.15-6.9 38.85 16.8"/><path fill="url(#b)" d="M323 152.05l-35.8-3.8L144.65 79.6l-40.3-19.4 2.75-6.15 215.9 98"/><path fill="url(#c)" d="M103.45 36.15l4.65-10.3-6.45-2.95 3.5-.55 5.5 2.5-5.15 11.4-2.05-.1"/><path fill="url(#d)" d="M99.05 61.9l-.3.65h.1l-9.8 21.65-6.5-11.45h.05l5.25 2.4L93.1 63.5l12.4-27.25 5.15-11.4-5.5-2.5-.6-.25 13.85-2.6-9.9 21.5-9.45 20.9"/><path fill="url(#e)" d="M88.05 57.55v-3.7l-.05-.8-.05-16.55v-4.7l8.6 3.85 5.35 2.45-9.8 21.55-4.05-2.1"/><path fill="url(#f)" d="M81.35 33.5l.5.25.15.05 5.95 2.7.05 16.55-5.95-2.7-.7-16.85"/><path fill="url(#g)" d="M91.7 62.05L86.85 57l1.2.55 4.05 2.1 9.8-21.55-5.35-2.45 6.9.5 2.05.1L93.1 63.5l-1.4-1.45"/><path fill="url(#h)" d="M144.65 79.6l-45.8-17.1.2-.6L108.5 41h.05l40.95 22.1-38.85-16.8-3.15 6.9-.4.85-2.75 6.15 40.3 19.4"/><path fill="url(#i)" d="M323.45 151.25l1.05.95-1.5-.15-215.9-98 .4-.85 215.95 98.05"/><path fill="url(#j)" d="M88.05 53.85l-7.2-3.3-.05-.5v-.7l-.4-15.85v-.45l.95.45.7 16.85 5.95 2.7.05.8"/><path fill="url(#k)" d="M82.55 72.75l-1.15-2 5.25 2.4 5.05-11.1 1.4 1.45-5.25 11.65-5.25-2.4h-.05"/><path fill="url(#l)" d="M142.65 89.85l-.05-.05.1-.05-.05.1"/><path fill="url(#m)" d="M29.85 14.45l7.5 3.4.15 8.4-7.3-3.35-.35-8.45m7.5 3.2l-.05-.7 8.3 3.75.25 10.05-7.1-3.25-.4-9.4-1-.45m8.25 2.9l-.05-.7 8.7 3.8.3 11.8-7.45-3.4-.5-11.1-1-.4m8.7 3.05l-.05-.65 8.6 3.9L63.1 40l-7.3-3.3-.5-12.65-1-.45m8.5 3.15v-.45l8.7 3.85.4 14.55-7.5-3.45-.6-14.05-1-.45m8.75 3.4v-.55l8.6 3.85.25.05.4 15.85-7.6-3.5-.65-15.3-1-.4"/><path fill="url(#n)" d="M63.15 40.7l-8.6-3.85v-1.4l-.3-11.8.05-.05 1 .45.5 12.65 7.3 3.3.05.7"/><path fill="url(#o)" d="M54.55 36.1l-8.65-3.95v-.8l-.05-.6-.25-10.05v-.15l1 .4.5 11.1 7.45 3.4v.65"/><path fill="url(#p)" d="M45.9 31.35l-8.3-3.75-.05-.75-.05-.6-.15-8.4v-.2l1 .45.4 9.4 7.1 3.25.05.6"/><path fill="url(#q)" d="M80.8 50.05l-8.9-4 .05-.6-.05-.75-.4-14.55h.05l1 .4.65 15.3 7.6 3.5v.7"/><path fill="url(#r)" d="M71.95 45.45l-8.75-4-.05-.75-.05-.7-.25-13.15-.05-.1 1 .45.6 14.05 7.5 3.45.05.75"/><path fill="url(#s)" d="M37.55 26.85L29 22.95l-.2-8.75.1-.15.95.4.35 8.45 7.3 3.35.05.6"/><path fill="url(#t)" d="M29 22.95l.05.1-12.1 2.25-6.2-4.85 5.5 2.5L23 19.9v-.1l.05-.05 1.5-8.4L12.8 6.1v-.05l11.75.85 4.3 7.1-.05.2.2 8.75"/><path fill="url(#u)" d="M10.75 20.45l-4.1-1.9L.1 8.1l.25-.05 8 8.5 8.55 3.8 6.1-.55v.1l-6.75 3.05-5.5-2.5"/><path fill="url(#v)" d="M23.05 19.75l-.05.05-6.1.55-8.55-3.8-8-8.5 8.95.2 10.45 4.65 3.3 6.85"/><path fill="url(#w)" d="M23.05 19.75l-3.3-6.85L9.3 8.25l-8.95-.2-.2-.15 12.6-1.8h.05l11.75 5.25-1.5 8.4"/><path fill="url(#x)" d="M.1 8.1L0 7.9h.15l.2.15-.25.05"/><path fill="url(#y)" d="M298.7 21.15l8.3-3.75.6.5.45.35 6.45 5.4.15.15-1.05.45-7.3-5.9-7.1 3.2-.5-.4"/><path fill="url(#z)" d="M307.6 17.9l8.55-3.9 6.75 5.65.1.15-.95.4-6.65-5.25-7.35 3.3-.45-.35"/><path fill="url(#A)" d="M289.45 24.6l8.7-3.95.55.5.5.4 7.75 6.45.1.1-1.05.5-8.65-6.95-7.45 3.4-.45-.45"/><path fill="url(#B)" d="M308.05 18.25l7.35-3.3 6.65 5.25-7.55 3.45-6.45-5.4m-8.85 3.3l7.1-3.2 7.3 5.9 1.05-.45.6.4-8.3 3.8-7.75-6.45m-9.3 3.5l7.45-3.4L306 28.6l1.05-.5.5.45-8.6 4-9.05-7.5m9.1 7.55l.55.45-8.6 3.95-10.2-8.55 7.35-3.35 9.95 7.95.95-.45m-7.95 4.4l.35.25-8.7 4.05.4.35-8.6 3.9-.2.25-12.25-10.15 7.65-3.5 12.05 9.6.95-.45-11.25-9.35 7.5-3.4 11.1 8.9 1-.45"/><path fill="url(#C)" d="M330.1 1.9l-5.55 2.5-2.1 7.05.05.1.05.05 5.35 6.65 11.65-5.4.1.05-8.45 8.35-8.15-1.5-.15-.1-6.75-5.65h-.1l6.3-10.65 7.75-1.5v.05"/><path fill="url(#D)" d="M298.95 32.55l.05.05-.95.45-9.95-7.95-7.35 3.35-.55-.4 8.65-3.9.6.45.45.45 9.05 7.5"/><path fill="url(#E)" d="M346.3 2.15l-11.7.5-8.45 3.95-3.65 4.95-.05-.1 2.1-7.05 5.55-2.5 4.15-1.85L346.5 2l-.2.15"/><path fill="url(#F)" d="M346.3 2.15l-6.05 6.7-10.4 4.8-7.3-2.05-.05-.05 3.65-4.95 8.45-3.95 11.7-.5"/><path fill="url(#G)" d="M346.3 2.15l.2-.15h.1l-.05.2-.25-.05"/><path fill="url(#H)" d="M346.3 2.15l.25.05-6.95 10.65h-.05l-11.65 5.4-5.35-6.65 7.3 2.05 10.4-4.8 6.05-6.7"/><path fill="url(#I)" d="M243.2 21.5l-5.25 2.4 5.35 11.7 12.4 27.25 5.2 11.45 5.5-2.5.6-.3-7.15 12.1L250.1 62l-9.55-20.9-.25-.65h-.05l-9.9-21.65 12.9 2.65-.05.05"/><path fill="url(#J)" d="M243.2 21.5h.1l2.25.45-5.3 2.4 5.05 11.15-2 .1-5.35-11.7 5.25-2.4"/><path fill="url(#K)" d="M240.55 41.1L250.1 62h-.05l-43.6 16.3 38.25-18.2-3.15-6.9-.4-.85-2.75-6.15-41.25 17.6 43.1-23.3.3.6"/><path fill="url(#L)" d="M266.4 71.8l-5.5 2.5-5.2-11.45 1.45-1.4 4.65 10.3 6.5-2.95-1.9 3"/><path fill="url(#M)" d="M243.3 35.6l2-.1 7.05-.35-1.3.5-4.2 1.75 9.8 21.55 5.4-2.45-4.9 4.95-1.45 1.4-12.4-27.25"/><path fill="url(#N)" d="M197.15 63.8l41.25-17.6 2.75 6.15-216.3 98.1L51.3 126l145.85-62.2"/><path fill="url(#O)" d="M241.15 52.35l.4.85L25.1 151.35l-1.35.15 1.1-1.05 216.3-98.1"/><path fill="url(#P)" d="M241.55 53.2l3.15 6.9-38.25 18.2-145.3 69.2-.1-.05-35.95 3.9L241.55 53.2"/><path fill="url(#Q)" d="M262.05 56.5l-5.4 2.45-9.8-21.55 4.2-1.75 2.85 2.5.6.5 12.55 10.85.05.05 3.55 3.05-8.6 3.9"/><path fill="url(#R)" d="M267.1 49.55l-.05-.05 3.35-1.5-3.3 1.55m-12.6-10.9l-.6-.5 7.2-3.3.45.25.5.55L274.3 45.8l.35.25-.95.45-13.25-10.55-5.95 2.7"/><path fill="url(#S)" d="M254.5 38.65l5.95-2.7L273.7 46.5l-3.3 1.5-3.35 1.5-12.55-10.85"/><path fill="url(#T)" d="M270.85 31.5l.6.45 11.25 9.35-.95.45-12.05-9.6-7.65 3.5-.5-.55 8.85-4 .45.4"/><path fill="url(#U)" d="M270.85 31.5l8.8-4 .55.55.55.4 10.2 8.55h.1l-1 .45-11.1-8.9-7.5 3.4-.6-.45"/><path fill="url(#V)" d="M190.75 55.6v-.05h.05l-.05.05"/><path fill="url(#W)" d="M208.9 58h10.7V14.8h-32.4v12.25l-1.15-2.15V13.3h34.8v45.85H210.6L208.9 58"/><path fill="url(#X)" d="M186.05 24.9l1.15 2.15.1.25q1 2.5 1 5.4 0 3-1.1 5.6l-1.15 2.1-2 2.4q-4.2 4.2-10.15 4.2-6 0-10.2-4.2l-.45-.45-1.3-1.6q-2.45-3.5-2.45-8.05 0-4.6 2.45-8.15l1.3-1.6.45-.45q4.2-4.2 10.2-4.2 5.95 0 10.15 4.2l2 2.4m-4-.4q-3.3-3.3-8.05-3.3-4.75 0-8.1 3.3-1.8 1.85-2.65 4.15-.65 1.8-.65 3.95 0 2.1.65 3.95.85 2.25 2.65 4.05 3.35 3.35 8.1 3.35t8.05-3.35q3.35-3.3 3.35-8 0-4.75-3.35-8.1"/><path fill="url(#Y)" d="M187.2 27.05V14.8h32.4V58h-10.7l-.1-.1q-3.15-1.8-7.1-1.8-3.9 0-7.05 1.8l-.1.1h-7.35V38.3q1.1-2.6 1.1-5.6 0-2.9-1-5.4l-.1-.25"/><path fill="url(#Z)" d="M208.9 58l1.7 1.15 1.3 1.15q4.2 4.2 4.2 10.2 0 5.95-4.2 10.15l-1.7 1.5-1.05.7-.25.15q-3.2 1.9-7.2 1.9-4.1 0-7.45-2.05l-1.05-.7-1.7-1.5q-4.2-4.2-4.2-10.15 0-6 4.2-10.2l1.3-1.15 1.75-1.15.1-.1q3.15-1.8 7.05-1.8 3.95 0 7.1 1.8l.1.1m-8.55 1.15q-3.9.45-6.7 3.25-3.35 3.35-3.35 8.1t3.35 8.05q3.35 3.35 8.05 3.35 4.75 0 8.05-3.35 3.35-3.3 3.35-8.05 0-4.75-3.35-8.1-2.8-2.8-6.65-3.25h-2.75"/><path fill="url(#aa)" d="M210.6 59.15h10.25V13.3h-34.8v11.6l-2-2.4q-4.2-4.2-10.15-4.2-6 0-10.2 4.2l-.45.45V13.3h-34.8v45.85h9.7l-.9.8q-4.2 4.25-4.2 10.2 0 5.95 4.2 10.15l2.4 2h-10.9v23l4.75 6.1q11.75 14.55 26.5 27.75l3.55 3.1v-23.7l.55.6q4.25 4.15 10.2 4.15 6 0 10.2-4.15l1.7-2.05v23.65l2.8-2.4q14.85-13.1 26.6-27.5l5.4-6.95V82.15h-10.8l1.7-1.5q4.2-4.2 4.2-10.15 0-6-4.2-10.2l-1.3-1.15m-47.35-16.8l.45.45q4.2 4.2 10.2 4.2 5.95 0 10.15-4.2l2-2.4v18.75h6.75l-1.3 1.15q-4.2 4.2-4.2 10.2 0 5.95 4.2 10.15l1.7 1.5h-7v18.65l-1.7-2.05q-4.2-4.2-10.2-4.2-5.95 0-10.2 4.2l-.55.6V82.3h-8.3l2.35-2q4.25-4.2 4.25-10.15t-4.25-10.2l-.85-.8h6.5v-16.8m52.35 80.7q-9.8 11.2-21.6 21.6-9.2 8.05-19.6 15.65-10.1-7.5-19.1-15.5-14.8-13.2-26.55-27.75l-7.5-9.95V6.05h107V107.1l-12.65 15.95"/><path fill="url(#ab)" d="M163.25 22.95l-1.3 1.6v-9.6h-32v43.2h9.55l-1.35 1h-9.7V13.3h34.8v9.65"/><path fill="url(#ac)" d="M161.95 24.55q-2.45 3.55-2.45 8.15 0 4.55 2.45 8.05v17.4h-6.55q-3.45-2.4-7.95-2.4-4.4 0-7.8 2.3l-.15.1h-9.55v-43.2h32v9.6"/><path fill="url(#ad)" d="M161.95 40.75l1.3 1.6v16.8h-6.5l-1.35-1h6.55v-17.4"/><path fill="url(#ae)" d="M187.2 38.3V58h7.35l-1.75 1.15h-6.75V40.4l1.15-2.1"/><path fill="url(#af)" d="M182.05 24.5q3.35 3.35 3.35 8.1 0 4.7-3.35 8-3.3 3.35-8.05 3.35-4.75 0-8.1-3.35-1.8-1.8-2.65-4.05-.65-1.85-.65-3.95 0-2.15.65-3.95.85-2.3 2.65-4.15 3.35-3.3 8.1-3.3t8.05 3.3"/><path fill="url(#ag)" d="M200.35 59.15h2.75q3.85.45 6.65 3.25 3.35 3.35 3.35 8.1t-3.35 8.05q-3.3 3.35-8.05 3.35-4.7 0-8.05-3.35-3.35-3.3-3.35-8.05 0-4.75 3.35-8.1 2.8-2.8 6.7-3.25"/><path fill="url(#ah)" d="M193.2 82.15l1.05.7h-7v19.7l-1.05-1.75V82.15h7"/><path fill="url(#ai)" d="M187.25 115.35l-1.05 1.75-1.7 2.05q-4.2 4.15-10.2 4.15-5.95 0-10.2-4.15l-.55-.6-.9-1.1-.05-.1q-2.7-3.65-2.7-8.4t2.65-8.35l.1-.15.9-1.1.55-.6q4.25-4.2 10.2-4.2 6 0 10.2 4.2l1.7 2.05 1.05 1.75.05.15q1.4 2.85 1.4 6.25 0 3.5-1.45 6.4m-4.75-14.15q-3.35-3.3-8.1-3.3-4.7 0-8.05 3.3-2 2-2.8 4.5-.55 1.7-.55 3.6 0 1.9.55 3.6.8 2.45 2.8 4.45 3.35 3.35 8.05 3.35 4.75 0 8.1-3.35 3.35-3.3 3.35-8.05 0-4.75-3.35-8.1"/><path fill="url(#aj)" d="M194.25 82.85q3.35 2.05 7.45 2.05 4 0 7.2-1.9l.25-.15h10.45v20.55l-4.65 6.1q-11.05 13.85-25.1 26.4l-2.6 2.3v-22.85q1.45-2.9 1.45-6.4 0-3.4-1.4-6.25l-.05-.15v-19.7h7"/><path fill="url(#ak)" d="M209.15 82.85l1.05-.7H221v21.75l-5.4 6.95q-11.75 14.4-26.6 27.5l-2.8 2.4V117.1l1.05-1.75v22.85l2.6-2.3q14.05-12.55 25.1-26.4l4.65-6.1V82.85h-10.45"/><path fill="url(#al)" d="M222.45 117.55l-6.85 8q-9.7 10.75-21.2 20.75-9.55 8.3-20.35 16.1-10.5-7.7-19.85-15.95-15.35-13.55-27.55-28.5-4.1-5-7.8-10.2V4H230v103.75l-7.55 9.8m-6.85 5.5l12.65-15.95V6.05h-107V107.1l7.5 9.95q11.75 14.55 26.55 27.75 9 8 19.1 15.5 10.4-7.6 19.6-15.65 11.8-10.4 21.6-21.6"/><path fill="url(#am)" d="M182.5 101.2q3.35 3.35 3.35 8.1t-3.35 8.05q-3.35 3.35-8.1 3.35-4.7 0-8.05-3.35-2-2-2.8-4.45-.55-1.7-.55-3.6 0-1.9.55-3.6.8-2.5 2.8-4.5 3.35-3.3 8.05-3.3 4.75 0 8.1 3.3"/><path fill="url(#an)" d="M163.55 118.55v23.7l-3.55-3.1q-14.75-13.2-26.5-27.75l-4.75-6.1v-23h10.9l1.95 1.05h-11.1v21.55l4.35 5.7q10.85 13.55 24.55 25.9l3.25 2.95v-22l.9 1.1"/><path fill="url(#ao)" d="M139.65 82.3l-2.4-2q-4.2-4.2-4.2-10.15t4.2-10.2l.9-.8 1.35-1 .15-.1q3.4-2.3 7.8-2.3 4.5 0 7.95 2.4l1.35 1 .85.8q4.25 4.25 4.25 10.2 0 5.95-4.25 10.15l-2.35 2-1.55.9q-2.85 1.35-6.25 1.35-3.2 0-5.85-1.2l-1.95-1.05m9.3-23.15h-2.75q-3.85.45-6.7 3.25-3.35 3.35-3.35 8.1t3.35 8.05q3.35 3.35 8.1 3.35 4.7 0 8.05-3.35 3.35-3.3 3.35-8.05 0-4.75-3.35-8.1-2.85-2.8-6.7-3.25"/><path fill="url(#ap)" d="M148.95 59.15q3.85.45 6.7 3.25 3.35 3.35 3.35 8.1t-3.35 8.05q-3.35 3.35-8.05 3.35-4.75 0-8.1-3.35-3.35-3.3-3.35-8.05 0-4.75 3.35-8.1 2.85-2.8 6.7-3.25h2.75"/><path fill="url(#aq)" d="M163.55 99.35l-.9 1.1v-17.1l-8.95-.15 1.55-.9h8.3v17.05"/><path fill="url(#ar)" d="M162.65 100.45l-.1.15q-2.65 3.6-2.65 8.35t2.7 8.4l.05.1v22l-3.25-2.95q-13.7-12.35-24.55-25.9l-4.35-5.7V83.35h11.1q2.65 1.2 5.85 1.2 3.4 0 6.25-1.35l8.95.15v17.1"/></svg>