<?xml version="1.0" encoding="utf-8"?>
<svg viewBox="0 0 85 26" fill="none" xmlns="http://www.w3.org/2000/svg">
  <path d="M5.76686 19.228C4.88019 19.228 4.08852 19.0127 3.39186 18.582C2.69519 18.1513 2.14419 17.5623 1.73886 16.815C1.33352 16.0677 1.13086 15.219 1.13086 14.269C1.13086 13.319 1.33352 12.4767 1.73886 11.742C2.14419 10.9947 2.69519 10.412 3.39186 9.994C4.08852 9.56333 4.88019 9.348 5.76686 9.348C6.47619 9.348 7.09686 9.481 7.62886 9.747C8.16086 10.013 8.59152 10.3867 8.92086 10.868V5.32H11.3529V19H9.18686L8.92086 17.651C8.61686 18.069 8.21152 18.4363 7.70486 18.753C7.21086 19.0697 6.56486 19.228 5.76686 19.228ZM6.27986 17.1C7.06519 17.1 7.70486 16.8403 8.19886 16.321C8.70552 15.789 8.95886 15.1113 8.95886 14.288C8.95886 13.4647 8.70552 12.7933 8.19886 12.274C7.70486 11.742 7.06519 11.476 6.27986 11.476C5.50719 11.476 4.86752 11.7357 4.36086 12.255C3.85419 12.7743 3.60086 13.4457 3.60086 14.269C3.60086 15.0923 3.85419 15.77 4.36086 16.302C4.86752 16.834 5.50719 17.1 6.27986 17.1ZM17.8308 19.228C16.9188 19.228 16.0955 19.019 15.3608 18.601C14.6388 18.183 14.0625 17.6067 13.6318 16.872C13.2138 16.1247 13.0048 15.2633 13.0048 14.288C13.0048 13.3127 13.2202 12.4577 13.6508 11.723C14.0815 10.9757 14.6578 10.393 15.3798 9.975C16.1145 9.557 16.9378 9.348 17.8498 9.348C18.7492 9.348 19.5598 9.557 20.2818 9.975C21.0165 10.393 21.5928 10.9757 22.0108 11.723C22.4415 12.4577 22.6568 13.3127 22.6568 14.288C22.6568 15.2633 22.4415 16.1247 22.0108 16.872C21.5928 17.6067 21.0165 18.183 20.2818 18.601C19.5472 19.019 18.7302 19.228 17.8308 19.228ZM17.8308 17.119C18.4642 17.119 19.0152 16.8847 19.4838 16.416C19.9525 15.9347 20.1868 15.2253 20.1868 14.288C20.1868 13.3507 19.9525 12.6477 19.4838 12.179C19.0152 11.6977 18.4705 11.457 17.8498 11.457C17.2038 11.457 16.6465 11.6977 16.1778 12.179C15.7218 12.6477 15.4938 13.3507 15.4938 14.288C15.4938 15.2253 15.7218 15.9347 16.1778 16.416C16.6465 16.8847 17.1975 17.119 17.8308 17.119ZM28.1387 19C27.1507 19 26.359 18.7593 25.7637 18.278C25.1683 17.7967 24.8707 16.9417 24.8707 15.713V11.609H23.2557V9.576H24.8707L25.1557 7.049H27.3027V9.576H29.8487V11.609H27.3027V15.732C27.3027 16.188 27.3977 16.5047 27.5877 16.682C27.7903 16.8467 28.1323 16.929 28.6137 16.929H29.7917V19H28.1387ZM32.4612 19.133C32.0179 19.133 31.6505 18.9937 31.3592 18.715C31.0805 18.4363 30.9412 18.1007 30.9412 17.708C30.9412 17.3027 31.0805 16.9607 31.3592 16.682C31.6505 16.4033 32.0179 16.264 32.4612 16.264C32.9045 16.264 33.2655 16.4033 33.5442 16.682C33.8355 16.9607 33.9812 17.3027 33.9812 17.708C33.9812 18.1007 33.8355 18.4363 33.5442 18.715C33.2655 18.9937 32.9045 19.133 32.4612 19.133ZM38.7091 19.228C37.8984 19.228 37.2334 19.1013 36.7141 18.848C36.1948 18.582 35.8084 18.2337 35.5551 17.803C35.3018 17.3723 35.1751 16.8973 35.1751 16.378C35.1751 15.504 35.5171 14.7947 36.2011 14.25C36.8851 13.7053 37.9111 13.433 39.2791 13.433H41.6731V13.205C41.6731 12.559 41.4894 12.084 41.1221 11.78C40.7548 11.476 40.2988 11.324 39.7541 11.324C39.2601 11.324 38.8294 11.4443 38.4621 11.685C38.0948 11.913 37.8668 12.255 37.7781 12.711H35.4031C35.4664 12.027 35.6944 11.4317 36.0871 10.925C36.4924 10.4183 37.0118 10.032 37.6451 9.766C38.2784 9.48733 38.9878 9.348 39.7731 9.348C41.1158 9.348 42.1734 9.68367 42.9461 10.355C43.7188 11.0263 44.1051 11.9763 44.1051 13.205V19H42.0341L41.8061 17.48C41.5274 17.9867 41.1348 18.4047 40.6281 18.734C40.1341 19.0633 39.4944 19.228 38.7091 19.228ZM39.2601 17.328C39.9568 17.328 40.4951 17.1 40.8751 16.644C41.2678 16.188 41.5148 15.6243 41.6161 14.953H39.5451C38.8991 14.953 38.4368 15.0733 38.1581 15.314C37.8794 15.542 37.7401 15.827 37.7401 16.169C37.7401 16.5363 37.8794 16.8213 38.1581 17.024C38.4368 17.2267 38.8041 17.328 39.2601 17.328ZM49.8954 16.188C49.4394 16.188 49.0151 16.1373 48.6224 16.036L47.9194 16.739C48.1347 16.853 48.4261 16.948 48.7934 17.024C49.1607 17.1 49.7561 17.176 50.5794 17.252C51.8334 17.366 52.7454 17.6637 53.3154 18.145C53.8854 18.6263 54.1704 19.2913 54.1704 20.14C54.1704 20.6973 54.0184 21.223 53.7144 21.717C53.4104 22.2237 52.9417 22.629 52.3084 22.933C51.6751 23.2497 50.8644 23.408 49.8764 23.408C48.5337 23.408 47.4507 23.1547 46.6274 22.648C45.8041 22.154 45.3924 21.4067 45.3924 20.406C45.3924 19.5573 45.8041 18.8227 46.6274 18.202C46.3741 18.088 46.1524 17.9677 45.9624 17.841C45.7851 17.7143 45.6267 17.5813 45.4874 17.442V17.005L47.1404 15.257C46.4057 14.611 46.0384 13.7813 46.0384 12.768C46.0384 12.1347 46.1904 11.5583 46.4944 11.039C46.8111 10.5197 47.2544 10.108 47.8244 9.804C48.3944 9.5 49.0847 9.348 49.8954 9.348C50.4274 9.348 50.9214 9.424 51.3774 9.576H54.9494V11.058L53.3344 11.172C53.5877 11.6533 53.7144 12.1853 53.7144 12.768C53.7144 13.4013 53.5624 13.9777 53.2584 14.497C52.9544 15.0163 52.5111 15.428 51.9284 15.732C51.3584 16.036 50.6807 16.188 49.8954 16.188ZM49.8954 14.326C50.3894 14.326 50.7947 14.193 51.1114 13.927C51.4407 13.661 51.6054 13.281 51.6054 12.787C51.6054 12.293 51.4407 11.913 51.1114 11.647C50.7947 11.381 50.3894 11.248 49.8954 11.248C49.3761 11.248 48.9581 11.381 48.6414 11.647C48.3247 11.913 48.1664 12.293 48.1664 12.787C48.1664 13.281 48.3247 13.661 48.6414 13.927C48.9581 14.193 49.3761 14.326 49.8954 14.326ZM47.6154 20.159C47.6154 20.6277 47.8307 20.976 48.2614 21.204C48.7047 21.4447 49.2431 21.565 49.8764 21.565C50.4844 21.565 50.9784 21.4383 51.3584 21.185C51.7384 20.9443 51.9284 20.615 51.9284 20.197C51.9284 19.855 51.8017 19.57 51.5484 19.342C51.3077 19.114 50.8201 18.9747 50.0854 18.924C49.5661 18.886 49.0847 18.829 48.6414 18.753C48.2741 18.9557 48.0081 19.1773 47.8434 19.418C47.6914 19.6587 47.6154 19.9057 47.6154 20.159ZM60.4101 19.228C59.4601 19.228 58.6178 19.0253 57.8831 18.62C57.1485 18.2147 56.5721 17.6447 56.1541 16.91C55.7361 16.1753 55.5271 15.3267 55.5271 14.364C55.5271 13.3887 55.7298 12.521 56.1351 11.761C56.5531 11.001 57.1231 10.412 57.8451 9.994C58.5798 9.56333 59.4411 9.348 60.4291 9.348C61.3538 9.348 62.1708 9.55067 62.8801 9.956C63.5895 10.3613 64.1405 10.9187 64.5331 11.628C64.9385 12.3247 65.1411 13.1037 65.1411 13.965C65.1411 14.1043 65.1348 14.25 65.1221 14.402C65.1221 14.554 65.1158 14.7123 65.1031 14.877H57.9401C57.9908 15.6117 58.2441 16.188 58.7001 16.606C59.1688 17.024 59.7325 17.233 60.3911 17.233C60.8851 17.233 61.2968 17.1253 61.6261 16.91C61.9681 16.682 62.2215 16.3907 62.3861 16.036H64.8561C64.6788 16.6313 64.3811 17.176 63.9631 17.67C63.5578 18.1513 63.0511 18.5313 62.4431 18.81C61.8478 19.0887 61.1701 19.228 60.4101 19.228ZM60.4291 11.324C59.8338 11.324 59.3081 11.495 58.8521 11.837C58.3961 12.1663 58.1048 12.673 57.9781 13.357H62.6711C62.6331 12.7363 62.4051 12.2423 61.9871 11.875C61.5691 11.5077 61.0498 11.324 60.4291 11.324ZM66.6661 19V9.576H68.8131L69.0031 11.172C69.2944 10.6147 69.7124 10.1713 70.2571 9.842C70.8144 9.51267 71.4667 9.348 72.2141 9.348C73.3794 9.348 74.2851 9.71533 74.9311 10.45C75.5771 11.1847 75.9001 12.2613 75.9001 13.68V19H73.4681V13.908C73.4681 13.0973 73.3034 12.4767 72.9741 12.046C72.6447 11.6153 72.1317 11.4 71.4351 11.4C70.7511 11.4 70.1874 11.6407 69.7441 12.122C69.3134 12.6033 69.0981 13.2747 69.0981 14.136V19H66.6661ZM81.9041 19C80.9161 19 80.1244 18.7593 79.5291 18.278C78.9338 17.7967 78.6361 16.9417 78.6361 15.713V11.609H77.0211V9.576H78.6361L78.9211 7.049H81.0681V9.576H83.6141V11.609H81.0681V15.732C81.0681 16.188 81.1631 16.5047 81.3531 16.682C81.5558 16.8467 81.8978 16.929 82.3791 16.929H83.5571V19H81.9041Z" fill="#151618" transform="matrix(1, 0, 0, 0.9999999999999999, 0, 0)"/>
</svg>